:SAMPLES-PER-SECOND 30
:FULLY-SPECIFIED
:DEGREES
155
root  -70.1003 41.7603 -7.20611 -146.612 -87.7033 147.754
RightUpLeg  1.6005 -6.90209 -3.2165
RightLeg  2.16564 -6.61026 3.44205
RightFoot  -2.25089 0.29434 -3.89035
RightToes  4.07452e-010 0 -3.6325e-017
Spine  -0.0661324 -0.219177 1.66792
Spine1  2.21205 -0.103771 -0.61164
HEad  -10.8944 4.11708 -1.53817
LeftShoulder1  0.0838108 3.00292 -8.15609
LeftArm  -21.1514 18.0761 0.997968
LeftForeArm  11.7963 -16.796 -2.44745
LeftHand  -0.244104 0.0205437 5.32207
RightShoulder  0.102382 -2.64124 3.98989
RightArm  -27.9933 -9.45565 2.41402
RightForeArm  -0.897248 7.47611 1.3836
RightHand  -0.775539 1.63259 -12.9584
LeftUpLeg  -0.605799 4.09798 2.14166
LeftLeg  -0.104342 10.2784 -3.86911
LeftFoot  0.182238 -0.137346 1.3714
LeftToes  1.0186e-010 1.09309e-010 2.97394e-011
156
root  -70.2141 41.7575 -7.15855 -146.524 -87.5162 147.966
RightUpLeg  1.40515 -6.92082 -3.36206
RightLeg  2.24779 -6.44532 3.37198
RightFoot  -2.4941 0.269795 -3.70235
RightToes  4.07452e-010 0 -3.6325e-017
Spine  -0.27739 -0.268763 1.35659
Spine1  2.11585 -0.188921 -0.431151
HEad  -10.4774 4.39512 -1.4767
LeftShoulder1  -0.00392049 3.56604 -6.86087
LeftArm  -22.4413 17.1292 1.18553
LeftForeArm  11.5104 -17.0705 -2.43717
LeftHand  -0.244104 0.0205437 5.32207
RightShoulder  0.0120361 -3.38475 1.98229
RightArm  -29.0692 -8.42246 2.27166
RightForeArm  -2.17886 7.85361 1.40131
RightHand  -0.814606 1.6075 -13.6401
LeftUpLeg  -0.637623 3.97291 1.93983
LeftLeg  -0.317573 10.5664 -3.903
LeftFoot  0.0420568 -0.137033 1.37362
LeftToes  1.0186e-010 1.09309e-010 2.97394e-011
157
root  -70.3086 41.7528 -7.12576 -145.533 -87.5142 147.1
RightUpLeg  1.4321 -6.98641 -3.48748
RightLeg  2.26786 -6.36689 3.39253
RightFoot  -2.69579 0.246796 -3.50356
RightToes  4.07452e-010 0 -3.6325e-017
Spine  -0.133295 -0.370603 1.08372
Spine1  1.79042 -0.331195 -0.216871
HEad  -10.206 4.58418 -1.52387
LeftShoulder1  -0.0377072 3.81315 -5.95832
LeftArm  -23.2615 16.2301 1.00266
LeftForeArm  11.4353 -16.8477 -2.3052
LeftHand  -0.244104 0.0205437 5.32207
RightShoulder  -0.03566 -3.90218 0.464024
RightArm  -27.2701 -7.21454 1.80321
RightForeArm  -5.06624 7.17033 2.06892
RightHand  -0.940788 2.13337 -14.6346
LeftUpLeg  -0.613813 3.89205 1.82165
LeftLeg  -0.348078 10.6129 -3.87545
LeftFoot  -0.0595307 -0.135594 1.37631
LeftToes  1.0186e-010 1.09309e-010 2.97394e-011
158
root  -70.386 41.7487 -7.10402 -144.151 -87.6086 145.701
RightUpLeg  1.63555 -7.0168 -3.55387
RightLeg  2.20215 -6.40764 3.40494
RightFoot  -2.8398 0.231376 -3.36938
RightToes  4.07452e-010 0 -3.6325e-017
Spine  0.258231 -0.520431 0.973045
Spine1  1.3085 -0.464497 -0.300347
HEad  -10.1316 4.64269 -1.49195
LeftShoulder1  -0.00933012 3.6104 -5.22753
LeftArm  -23.29 15.6715 0.682459
LeftForeArm  11.2656 -16.1969 -2.11273
LeftHand  -0.244104 0.0205437 5.32207
RightShoulder  -0.0372301 -3.94877 0.0152302
RightArm  -23.2341 -5.95875 0.565646
RightForeArm  -8.21272 5.62161 3.16885
RightHand  -1.14367 3.32427 -15.4129
LeftUpLeg  -0.498607 3.84622 1.76582
LeftLeg  -0.293967 10.5653 -3.81487
LeftFoot  -0.228246 -0.130866 1.35841
LeftToes  1.0186e-010 1.09309e-010 2.97394e-011
